#!OML:ASF X:\für Bonn\!DataBase\2005_08_10_Bjorn_Final\c3d\bjorn.ASF
:FULLY-SPECIFIED
:DEGREES
181
root 16.168 17.6492 0.0597428 1091.66 -64.5152 -330.896
lowerback 64.8928 -0.500696 11.3472
upperback 20.1216 3.08602 -0.5723
thorax 2.16255 1.99563 -6.48409
lowerneck 8.01746 -6.67586 11.9853
upperneck -19.4591 -8.13887 -2.79549
head -7.97254 -4.66754 -2.07683
rclavicle -9.54166e-015 -4.29375e-014
rhumerus 79.6815 -3.09935 -49.6601
rradius 2.97848
rwrist 20.5607
rhand -44.1782 39.4279
rfingers 7.12502
rthumb -16.9928 10.1512
lclavicle -9.54166e-015 -4.29375e-014
lhumerus -5.84013 -27.0111 88.4272
lradius 50.3642
lwrist 0.511507
lhand -29.9179 -15.3013
lfingers 7.12502
lthumb -3.23822 14.6539
rfemur -77.4648 -18.2128 14.1433
rtibia 63.8599
rfoot -19.3664 8.9839
rtoes -6.1571
lfemur -73.5205 -4.35754 -24.9829
ltibia 56.4339
lfoot -13.1327 -9.58692
ltoes -4.45901
182
root 16.163 17.6472 0.0630195 1091.51 -64.5043 -330.758
lowerback 65.159 -0.550486 11.3806
upperback 20.0286 3.09192 -0.592612
thorax 2.06912 1.99805 -6.51608
lowerneck 7.97327 -6.71883 11.9886
upperneck -19.4635 -8.19561 -2.74864
head -7.96913 -4.70058 -2.05668
rclavicle 1.24042e-013 7.95139e-014
rhumerus 79.9493 -3.13731 -48.9353
rradius 2.78583
rwrist 22.6
rhand -43.876 38.8944
rfingers 7.12502
rthumb -16.7018 9.59288
lclavicle 1.24042e-013 7.95139e-014
lhumerus -5.8729 -26.9644 88.4209
lradius 50.3939
lwrist 0.532603
lhand -29.9469 -15.2746
lfingers 7.12502
lthumb -3.26619 14.6801
rfemur -77.4289 -18.2247 14.0409
rtibia 63.9153
rfoot -19.4224 8.97408
rtoes -6.19371
lfemur -73.4809 -4.39412 -25.0413
ltibia 56.4703
lfoot -13.1835 -9.57969
ltoes -4.45926
183
root 16.1588 17.6445 0.0658281 1091.32 -64.4746 -330.584
lowerback 65.4448 -0.621336 11.407
upperback 19.9284 3.07558 -0.624501
thorax 1.96591 1.99095 -6.54976
lowerneck 7.95054 -6.74047 11.9533
upperneck -19.4868 -8.2127 -2.64381
head -7.96867 -4.71689 -2.0149
rclavicle 9.54166e-014 1.08139e-013
rhumerus 80.2322 -3.18467 -48.2236
rradius 2.57795
rwrist 24.5915
rhand -43.4798 38.3731
rfingers 7.12502
rthumb -16.3203 9.03984
lclavicle 9.54166e-014 1.08139e-013
lhumerus -5.93635 -26.8638 88.4076
lradius 50.4675
lwrist 0.557872
lhand -29.9264 -15.2561
lfingers 7.12502
lthumb -3.24643 14.6989
rfemur -77.3873 -18.2535 13.9258
rtibia 63.9685
rfoot -19.4773 8.94408
rtoes -6.33612
lfemur -73.4371 -4.44594 -25.1201
ltibia 56.5049
lfoot -13.228 -9.57007
ltoes -4.50878
184
root 16.1546 17.6413 0.0689826 1091.12 -64.4531 -330.403
lowerback 65.7338 -0.694335 11.447
upperback 19.831 3.06359 -0.665052
thorax 1.86902 1.98891 -6.60003
lowerneck 7.91543 -6.77386 11.9599
upperneck -19.5124 -8.24505 -2.55597
head -7.97079 -4.74239 -1.98389
rclavicle -6.36111e-015 6.36111e-015
rhumerus 80.5126 -3.26617 -47.5104
rradius 2.36363
rwrist 26.5494
rhand -43.0035 37.8273
rfingers 7.12502
rthumb -15.8618 8.45701
lclavicle -6.36111e-015 6.36111e-015
lhumerus -5.96561 -26.8254 88.3613
lradius 50.5153
lwrist 0.684367
lhand -29.9179 -15.3678
lfingers 7.12502
lthumb -3.23822 14.5873
rfemur -77.3461 -18.2847 13.8058
rtibia 64.027
rfoot -19.492 8.96525
rtoes -6.21056
lfemur -73.3995 -4.48098 -25.2129
ltibia 56.5495
lfoot -13.2552 -9.58529
ltoes -4.33725
185
root 16.1506 17.6388 0.0727787 1090.95 -64.4352 -330.235
lowerback 66.011 -0.766339 11.4816
upperback 19.7281 3.05043 -0.699467
thorax 1.7651 1.98403 -6.64122
lowerneck 7.90852 -6.799 11.9272
upperneck -19.5378 -8.26519 -2.45569
head -7.97435 -4.75968 -1.94313
rclavicle -1.24042e-013 9.54166e-015
rhumerus 80.7781 -3.34904 -46.7821
rradius 2.14951
rwrist 28.3919
rhand -42.4728 37.2942
rfingers 7.12502
rthumb -15.3506 7.88402
lclavicle -1.24042e-013 9.54166e-015
lhumerus -6.02689 -26.7254 88.3481
lradius 50.5732
lwrist 0.743945
lhand -29.9156 -15.4336
lfingers 7.12502
lthumb -3.23599 14.5216
rfemur -77.3301 -18.3118 13.6992
rtibia 64.0868
rfoot -19.5463 8.93805
rtoes -6.28689
lfemur -73.3731 -4.53536 -25.2835
ltibia 56.588
lfoot -13.312 -9.53958
ltoes -4.45239
186
root 16.1464 17.6358 0.0760105 1090.79 -64.4374 -330.118
lowerback 66.3369 -0.828894 11.5054
upperback 19.6254 3.04236 -0.740044
thorax 1.66361 1.98104 -6.6855
lowerneck 7.86055 -6.81574 11.9334
upperneck -19.5708 -8.27996 -2.38406
head -7.97579 -4.77588 -1.91981
rclavicle -3.49861e-014 -3.18055e-015
rhumerus 81.0789 -3.44072 -46.0662
rradius 1.89827
rwrist 30.0377
rhand -42.0008 36.848
rfingers 7.12502
rthumb -14.8959 7.40357
lclavicle -3.49861e-014 -3.18055e-015
lhumerus -6.0571 -26.6248 88.3058
lradius 50.6328
lwrist 0.850178
lhand -29.9152 -15.4882
lfingers 7.12502
lthumb -3.23556 14.467
rfemur -77.2735 -18.307 13.5979
rtibia 64.144
rfoot -19.6006 8.93694
rtoes -6.28504
lfemur -73.3192 -4.54335 -25.356
ltibia 56.6349
lfoot -13.3644 -9.52252
ltoes -4.63044
187
root 16.143 17.6328 0.0807204 1090.6 -64.4403 -329.935
lowerback 66.6361 -0.873037 11.5
upperback 19.5145 3.04032 -0.749994
thorax 1.54869 1.9731 -6.6866
lowerneck 7.85654 -6.8332 11.8653
upperneck -19.5982 -8.29826 -2.29823
head -7.97893 -4.78872 -1.87849
rclavicle 2.22639e-014 -5.40694e-014
rhumerus 81.3635 -3.52202 -45.2967
rradius 1.62017
rwrist 31.6045
rhand -41.534 36.552
rfingers 7.12502
rthumb -14.4461 7.07477
lclavicle 2.22639e-014 -5.40694e-014
lhumerus -6.14164 -26.5167 88.3277
lradius 50.7086
lwrist 0.927959
lhand -29.9236 -15.5455
lfingers 7.12502
lthumb -3.24365 14.4096
rfemur -77.2634 -18.3357 13.4912
rtibia 64.2051
rfoot -19.6287 8.93441
rtoes -6.4214
lfemur -73.2919 -4.59147 -25.4336
ltibia 56.6782
lfoot -13.4156 -9.48503
ltoes -4.65311
188
root 16.1395 17.63 0.0851332 1090.43 -64.4516 -329.788
lowerback 66.9552 -0.926296 11.5079
upperback 19.4112 3.03396 -0.77525
thorax 1.44583 1.96717 -6.70802
lowerneck 7.84215 -6.84396 11.8197
upperneck -19.6416 -8.3043 -2.20835
head -7.98569 -4.79839 -1.84082
rclavicle -2.22639e-014 1.11319e-013
rhumerus 81.62 -3.59968 -44.5556
rradius 1.3529
rwrist 33.0507
rhand -40.9976 36.4538
rfingers 7.12502
rthumb -13.9293 6.94037
lclavicle -2.22639e-014 1.11319e-013
lhumerus -6.18128 -26.3984 88.3252
lradius 50.7534
lwrist 0.976257
lhand -29.991 -15.6455
lfingers 7.12502
lthumb -3.30879 14.3085
rfemur -77.2229 -18.3396 13.3811
rtibia 64.2643
rfoot -19.6765 8.9406
rtoes -6.47182
lfemur -73.2453 -4.61569 -25.5022
ltibia 56.724
lfoot -13.4717 -9.46655
ltoes -4.6677
189
root 16.1367 17.6265 0.0907562 1090.21 -64.4704 -329.581
lowerback 67.2572 -0.975876 11.508
upperback 19.3134 3.02558 -0.794207
thorax 1.3479 1.95959 -6.71884
lowerneck 7.83771 -6.87045 11.7749
upperneck -19.6974 -8.33363 -2.12764
head -8.00049 -4.81899 -1.80316
rclavicle -9.85972e-014 3.18055e-014
rhumerus 81.8675 -3.66705 -43.7939
rradius 1.04832
rwrist 34.4513
rhand -40.5424 36.4471
rfingers 7.12502
rthumb -13.4906 6.90403
lclavicle -9.85972e-014 3.18055e-014
lhumerus -6.22293 -26.3155 88.3378
lradius 50.7911
lwrist 0.95473
lhand -30.0689 -15.7004
lfingers 7.12502
lthumb -3.38401 14.2525
rfemur -77.2048 -18.3582 13.2579
rtibia 64.3206
rfoot -19.6978 8.94866
rtoes -6.57971
lfemur -73.2148 -4.64642 -25.603
ltibia 56.7719
lfoot -13.5169 -9.43838
ltoes -4.58487
190
root 16.1337 17.6236 0.0954722 1089.98 -64.4891 -329.388
lowerback 67.5971 -1.02629 11.5063
upperback 19.206 3.01895 -0.825267
thorax 1.24203 1.95381 -6.74239
lowerneck 7.81462 -6.89011 11.7719
upperneck -19.7534 -8.34925 -2.04897
head -8.01334 -4.83602 -1.77479
rclavicle -4.77083e-014 -3.81667e-014
rhumerus 82.1 -3.72081 -43.0643
rradius 0.74783
rwrist 35.7961
rhand -40.1047 36.4216
rfingers 7.12502
rthumb -13.0687 6.85106
lclavicle -4.77083e-014 -3.81667e-014
lhumerus -6.26087 -26.2452 88.3286
lradius 50.8433
lwrist 1.00703
lhand -30.1683 -15.7455
lfingers 7.12502
lthumb -3.48002 14.2058
rfemur -77.1605 -18.3662 13.1339
rtibia 64.3786
rfoot -19.7426 8.94457
rtoes -6.65071
lfemur -73.1564 -4.67315 -25.6921
ltibia 56.8205
lfoot -13.5782 -9.41225
ltoes -4.50604
191
root 16.131 17.6198 0.100434 1089.76 -64.5069 -329.181
lowerback 67.9095 -1.06435 11.4876
upperback 19.1081 3.01302 -0.840535
thorax 1.14419 1.94558 -6.74227
lowerneck 7.76626 -6.91452 11.8246
upperneck -19.7886 -8.38325 -2.04744
head -8.02186 -4.85897 -1.77967
rclavicle -7.63333e-014 -1.90833e-014
rhumerus 82.3064 -3.78315 -42.317
rradius 0.514541
rwrist 37.0594
rhand -39.6581 36.3985
rfingers 7.12502
rthumb -12.6382 6.80088
lclavicle -7.63333e-014 -1.90833e-014
lhumerus -6.29266 -26.1368 88.3431
lradius 50.8736
lwrist 1.00838
lhand -30.2242 -15.8137
lfingers 7.12502
lthumb -3.53397 14.1368
rfemur -77.1324 -18.3784 13.0011
rtibia 64.4347
rfoot -19.7565 8.98871
rtoes -6.58154
lfemur -73.1267 -4.69527 -25.8052
ltibia 56.8735
lfoot -13.6548 -9.36277
ltoes -4.7615
192
root 16.1291 17.6174 0.106239 1089.56 -64.5502 -328.999
lowerback 68.2148 -1.0866 11.4602
upperback 19.0229 3.01389 -0.846747
thorax 1.06089 1.93898 -6.73096
lowerneck 7.72427 -6.93091 11.7705
upperneck -19.8485 -8.40504 -1.96324
head -8.03001 -4.8767 -1.74148
rclavicle -7.31528e-014 4.13472e-014
rhumerus 82.5364 -3.83369 -41.553
rradius 0.259208
rwrist 38.2667
rhand -39.304 36.4079
rfingers 7.12502
rthumb -12.2967 6.78948
lclavicle -7.31528e-014 4.13472e-014
lhumerus -6.30685 -26.032 88.3584
lradius 50.9158
lwrist 0.993214
lhand -30.3014 -15.8584
lfingers 7.12502
lthumb -3.6085 14.0908
rfemur -77.1095 -18.3716 12.8867
rtibia 64.4872
rfoot -19.7994 8.98304
rtoes -6.79751
lfemur -73.0937 -4.71801 -25.8808
ltibia 56.9281
lfoot -13.71 -9.28906
ltoes -4.85662
193
root 16.1273 17.6138 0.111844 1089.33 -64.5684 -328.792
lowerback 68.5338 -1.12072 11.4265
upperback 18.9323 3.00316 -0.846845
thorax 0.970814 1.9256 -6.70563
lowerneck 7.67395 -6.94407 11.7673
upperneck -19.8996 -8.42588 -1.92814
head -8.03823 -4.89312 -1.72794
rclavicle -5.725e-014 4.77083e-014
rhumerus 82.7609 -3.87367 -40.7908
rradius 0.0183456
rwrist 39.3509
rhand -38.9913 36.3387
rfingers 7.12502
rthumb -11.9952 6.70241
lclavicle -5.725e-014 4.77083e-014
lhumerus -6.31641 -25.9192 88.3941
lradius 50.9571
lwrist 1.01297
lhand -30.3506 -15.8046
lfingers 7.12502
lthumb -3.65603 14.1438
rfemur -77.0763 -18.3897 12.7531
rtibia 64.546
rfoot -19.8019 9.0038
rtoes -6.75774
lfemur -73.0547 -4.7329 -25.9974
ltibia 56.982
lfoot -13.7651 -9.27172
ltoes -4.91994
